<svg version="1.1" id="Слой_1" xmlns="http://www.w3.org/2000/svg" x="0" y="0" viewBox="0 0 3008.9 2000" xml:space="preserve"><style>.st0{fill:#f2f2f2}.st1{fill:#e8eaf2}.st2{fill:#00a076}.st3{fill:#27ce9a}.st4{fill:#323657}.st5{fill:#e0e0e0}.st6{fill:#f9f9fa}.st7{fill:#353a3d}.st8{fill:#81807e}.st9{fill:#2d3133}.st10{fill:#decbc4}.st17{fill:#5b83c2}.st22{fill:#eea886}.st24{fill:#57598b}.st25{fill:#e3e3e5}.st28{fill:#4a4a66}.st29{fill:#fff}.st32{fill:#d8d0ca}.st33{fill:#3f3c57}.st34{fill:#1e3865}.st35{fill:#132e52}.st37{fill:#163560}.st40{fill:#0b3563}.st45{fill:#a3a09f}.st47{fill:#777371}.st55{fill:#dedefa}.st56{fill:#8d90bd}.st57{fill:#686ea3}</style><path class="st0" d="M1496 1637.7c-220.9 94.7-798.4 203.6-983.3-168.3C225.5 891.6 653.3 317.1 960.9 400.8c220.9 60.1 354.8 138.1 554.8-14.4 226.3-172.5 907.6-243 1172 71.4 232.9 276.9-16.4 504.6 83.8 720.4 367.9 792.3-657.7 474.7-857.5 394.7-199.7-80.1-310.7 18.7-418 64.8z"/><ellipse class="st1" cx="979.1" cy="1393.4" rx="184" ry="19.7"/><path class="st1" d="M374.7 830.9h558.7c15.4 0 27.9-12.5 27.9-27.9V296.1c0-15.4-12.5-27.9-27.9-27.9H374.7c-15.4 0-27.9 12.5-27.9 27.9V803c0 15.4 12.5 27.9 27.9 27.9z"/><path class="st2" d="M561 354.5H416.5c-5.4 0-9.8-4.4-9.8-9.7 0-5.4 4.4-9.7 9.8-9.7H561c5.4 0 9.7 4.4 9.7 9.7.1 5.3-4.3 9.7-9.7 9.7z"/><path class="st3" d="M561 388.5H416.5c-5.4 0-9.8-4.4-9.8-9.7 0-5.4 4.4-9.7 9.8-9.7H561c5.4 0 9.7 4.4 9.7 9.7.1 5.4-4.3 9.7-9.7 9.7zm0 34H416.5c-5.4 0-9.8-4.4-9.8-9.7 0-5.4 4.4-9.7 9.8-9.7H561c5.4 0 9.7 4.4 9.7 9.7.1 5.4-4.3 9.7-9.7 9.7zm144.1 167.9c57.4 20.5 119.3 2 156.6-41.9 8.9-10.5 16.4-22.3 22.1-35.5 1.3-2.9 2.4-5.9 3.5-8.9 10.9-30.3 10.8-61.9 1.9-90.5-12.9-41.2-44.3-76.1-88.1-91.7-14.5-5.2-29.2-7.9-43.7-8.3-60.1-1.8-117.1 34.8-138.5 94.5-26.5 74.2 12.1 155.8 86.2 182.3zm-52.6-170.2c16-44.7 58.8-72.2 103.8-70.9 10.9.3 22 2.3 32.8 6.2 32.8 11.7 56.4 37.9 66 68.8 6.7 21.4 6.7 45.1-1.4 67.8-.8 2.3-1.7 4.5-2.6 6.7-4.3 9.9-9.9 18.8-16.6 26.6-28 32.9-74.4 46.8-117.4 31.4-55.6-19.9-84.5-81-64.6-136.6z"/><path class="st2" d="M855.1 424.3l34.1-10.6c-12.9-41.2-44.3-76.1-88.1-91.7-14.5-5.2-29.2-7.9-43.7-8.3l-1.1 35.7c10.9.3 22 2.3 32.8 6.2 32.8 11.7 56.3 37.8 66 68.7z"/><path class="st4" d="M851.1 498.8l32.7 14.2c1.3-2.9 2.4-5.9 3.5-8.9 10.9-30.3 10.8-61.9 1.9-90.5l-34.1 10.6c6.7 21.4 6.7 45.1-1.4 67.8-.8 2.4-1.7 4.7-2.6 6.8zm10.6 49.8c8.9-10.5 16.4-22.3 22.1-35.5l-32.7-14.2c-4.3 9.9-9.9 18.8-16.6 26.6l27.2 23.1z"/><path class="st3" d="M468.2 573.8c10.8 22.8 34.3 35.5 58.1 33.6 5.7-.5 11.3-1.7 16.8-3.9 1.2-.5 2.4-1 3.6-1.6 12.1-5.7 21.3-15 27-25.9 8.3-15.8 9.3-35.2 1.1-52.6-2.7-5.7-6.2-10.8-10.4-15.2-17-18.2-44.4-24.2-68.1-12.9-29.5 13.9-42 49-28.1 78.5zm34.4-65.2c17.8-8.4 38.3-3.9 51.1 9.6 3.1 3.3 5.7 7.1 7.8 11.4 6.2 13 5.4 27.6-.8 39.4-4.3 8.2-11.2 15.2-20.2 19.4l-2.7 1.2c-4.1 1.6-8.4 2.6-12.6 2.9-17.8 1.4-35.4-8.1-43.5-25.2-10.6-21.9-1.2-48.3 20.9-58.7z"/><path class="st2" d="M559.7 569.1l13.1 6.9c8.3-15.8 9.3-35.2 1.1-52.6-2.7-5.7-6.2-10.8-10.4-15.2l-10.7 10.1c3.1 3.3 5.7 7.1 7.8 11.4 6 13 5.3 27.5-.9 39.4z"/><path class="st3" d="M538.6 646.2h110.1V644H540.8v-46.6h-2.2z"/><path transform="rotate(-180 619.74 627.814)" class="st5" d="M590.8 621.2h58v13.1h-58z"/><path class="st6" d="M207 920.7h511.4c10.4 0 18.8-8.4 18.8-18.8V695.7c0-10.4-8.4-18.8-18.8-18.8H207c-10.4 0-18.8 8.4-18.8 18.8v206.2c0 10.4 8.4 18.8 18.8 18.8z"/><path class="st5" d="M630.9 726.5h24.3v161.4h-24.3zm-60.5 32.8h24.3v128.6h-24.3zM510 735.2h24.3V888H510zm-59.5 47.7h24.3V888h-24.3zm-60.4-42.7h24.3V888h-24.3zm-60.4-22.3H354V888h-24.3zm-61.5-9.3h24.3V888h-24.3z"/><path class="st3" d="M630.9 786.7h24.3V888h-24.3zm-60.5 20.6h24.3V888h-24.3zM510 792.1h24.3v95.8H510zM450.5 822h24.3v65.9h-24.3zm-60.4-26.8h24.3v92.7h-24.3zm-60.4-13.9H354V888h-24.3zm-61.5-5.9h24.3v112.5h-24.3z"/><path class="st7" d="M1019.9 1360.8s8.3 12.4 19.9 15c11.6 2.7 23 6.9 23.1 14.2.1 7.3-33.5 11.7-46.8 4.3-19.8-11-21.8-7.7-24-13.2-2.2-5.5 2.6-20.2 2.5-22-.3-2.1 25.3 1.7 25.3 1.7z"/><path class="st8" d="M1018.6 1354.6s1.5 6 1.3 6.1c-.2.1-26.1 3.2-25.4-1.6.6-3.9 1.5-8.1 1.5-8.1l22.6 3.6z"/><path class="st7" d="M932.7 1359.9s5.9 11.8 16 15.9c10.8 4.3 19.4 9.3 19.2 16.4-.2 7.1-26.3 14.4-45.4.7-12-8.6-15.8-8.7-17.8-14.1-1.9-5.4 3.3-19.6 3.3-21.3-.1-2.2 24.7 2.4 24.7 2.4z"/><path class="st8" d="M932.9 1353.8s-.1 6-.3 6.1c-.2.1-25.3 2.2-24.6-2.5.5-3.7 2.4-8.2 2.4-8.2l22.5 4.6z"/><path class="st9" d="M1024.8 992.2s23.3 102.7 28.6 133.9c4.5 26.6 8.1 54.3 6 73.5-2.7 23.8-36.4 147.1-35 154 1.4 7-35.2 1.1-35.2 1.1s25.6-137.5 20.5-163.1c-3.8-19-37-144.9-42.1-138.4-5.1 6.5-11.4 118.8-15.2 137.5-3.8 18.7-15.3 166.1-15.3 166.1s-25.9 3.8-32.8-2c0 0-3.1-125.9-.7-160.8.9-13.3-15.6-159.8 5.6-218.8 11.2-31.2 115.6 17 115.6 17z"/><path class="st10" d="M1126.1 898.9c-16.6-2.3-68.8 20.8-73.5 19-3.3-1.2-10.9-26.1-16.4-45-3.2-11.2-5.7-20.2-6-21 .1.5.9 9-.2 20.2-.1.7-.1 1.5-.2 2.2 0 .2 0 .4-.1.6-.5 4-1.2 8.3-2.4 12.6-1.7 6.4-2.4 14.8-2.7 23.7v1.1c-.5 16.2.7 33.6 1.1 42.9.7 14.4-4 20.8-4.1 21l-5-.7-3.6-.5-4.8-.7-18.9-2.7-6.9-1-1.6-.2-12-1.7-33.8-4.8-3.7-.5-1.5-.2-12.7-1.8-5.8-.8s-4.9-34.7-5.3-53.5c-.3-17.2-9.6-52.2-11.1-57.8v-.3c0-.1 0-.2-.1-.2v-.2s-27.6 29-32.9 41.6c-1.6 3.8-6.6 14.3-13 27-4.3-8.3-7.1-14.1-7.1-15.5v-.6c.4-12.5 13.5-63.2 23.9-96.4 8-16.1 15-29.2 17.2-30.8 3.4-2.4 17.5-8.5 29.9-13.4.4-.2.8-.3 1.2-.5 1.2-.5 2.3-.9 3.4-1.3.6-.2 1.1-.4 1.6-.6l.9-.3c.2-.1.5-.2.7-.3 6.2-2.4 10.9-4 11.8-4h.8c.4 0 .9 0 1.6.1 7.6.4 30.4 2.6 37.8 3.3 1.3.1 2.2.2 2.3.2s3.5 1.6 8.8 4l.5.2c3.2 1.5 6.9 3.4 10.8 5.5 7.6 4.2 16.1 9.1 23 12.4 6.9 3.3 16.2 7.8 17 8.4l34.7 100.1 60.2-11-3.8 22.2z"/><path d="M1021.5 976.3s2.5 3 3.3 15.9c0 0-104.6-12.2-115.6-17 0 0-.4-14.2 1.9-14.4 2.5-.3 110.4 15.5 110.4 15.5z" fill="#495055"/><linearGradient id="SVGID_1_" gradientUnits="userSpaceOnUse" x1="932.33" y1="744.033" x2="975.046" y2="744.033"><stop offset="0" stop-color="#ffb9b8"/><stop offset="1" stop-color="#feb3b1"/></linearGradient><path d="M932.3 750.1c.3 16.4 32.1 25.4 32.1 25.4s13.3-16.7 10.1-18.3c-1.2-.6-1.8-3.1-1.9-5.9-.1-2.7 0-5.6.2-7.4.1-1.2.2-1.9.2-1.9s-4.5-4.8-10.3-10.5c-10.1-10-24-22.8-24-17.7 0 .3 0 .6.1 1 2.5 11.4-6.5 35.3-6.5 35.3z" fill="url(#SVGID_1_)"/><path class="st7" d="M935 963.3s-2.3 14.4-2.5 18.1l-4.8-1s1.3-15.2 2.1-17.8l5.2.7zm77.8 11.3s1.8 13.1 1.9 18l-5.1-.7s-1-16.3-1.6-18l4.8.7z"/><linearGradient id="SVGID_2_" gradientUnits="userSpaceOnUse" x1="944.57" y1="738.654" x2="975.985" y2="738.654"><stop offset="0" stop-color="#ffb9b8"/><stop offset="1" stop-color="#feb3b1"/></linearGradient><path d="M944.6 726c.1.1 1.4 2.1 3.7 5 4.9 6.1 14.1 16.2 24.4 20.3-.1-2.7 0-5.6.2-7.4 1.1 0 2.1-.1 3.2-.4-2.8-4.9-6.9-10.1-6.9-10.1l-6.4-1.9-18.2-5.5z" fill="url(#SVGID_2_)"/><linearGradient id="SVGID_3_" gradientUnits="userSpaceOnUse" x1="927.647" y1="701.336" x2="997.418" y2="701.336"><stop offset="0" stop-color="#ffb9b8"/><stop offset="1" stop-color="#feb3b1"/></linearGradient><path d="M938.5 714c2.7 6 5.4 10.3 6.1 12 .5 1.1 1.8 2.9 3.7 5 5.2 5.6 15 13.1 24.5 12.8 1.1 0 2.1-.1 3.2-.4 3.9-.8 8.4-2.6 10.9-7.6 19.8-38.8 5.5-70.6 5.5-70.6s-54.2-15.3-62.7 1c-6 11.6 2.3 33.7 8.8 47.8z" fill="url(#SVGID_3_)"/><path d="M992.4 665.3s5-.3 6.3-9.8c1.2-9.4-1.3-12-1.3-12s-22.4-9.4-30.4-10.6c-8-1.2-27.8-2.4-32.4 2.9 0 0-11.3-2.6-14.3 16.1-4.9 29.6 16.6 58.4 16.6 58.4s-.2-19.4 4.1-21.9c4.3-2.6 8 3.5 8 3.5l8.7 1.6s-13.3-28.7 2.6-29.7c15.9-1.1 23 3.2 32.1 1.5z" fill="#434343"/><linearGradient id="SVGID_4_" gradientUnits="userSpaceOnUse" x1="933.349" y1="687.292" x2="948.905" y2="687.292"><stop offset="0" stop-color="#ffb9b8"/><stop offset="1" stop-color="#feb3b1"/></linearGradient><path d="M948.6 684.2c-.8-8.5-16.3-11.8-15.2-2.8 1 8.9 8.6 17.5 12.1 17.2 3.5-.3 3.8-7.9 3.1-14.4z" fill="url(#SVGID_4_)"/><path class="st17" d="M848.6 917.3c6.7 12.8 17.3 31.7 27.8 50-1.4 2.6-2.7 5.1-4 7.6-3.1 6.2-5.9 12.1-7.9 17.7-2.4 6.7-5.7 23.8.6 27l33.5 18.5s.2-.7.7-1.9c1.1-3 3.5-9.4 6.8-17.8.1-.3.4-1.1.9-2.2.7-1.6 1.6-3.8 2.7-6.4.5-1.1 1-2.4 1.5-3.6.6-1.4 1.2-2.9 1.9-4.3.9-2.1 1.8-4.2 2.7-6.2 2.3-5.3 4.1-9.5 4.1-9.5.1-.2.2-.5.3-.7 1.1-2.4 2.2-4.7 3.3-7.1 1.8-3.6 3.6-7.3 5.4-10.8.2-.4.4-.7.6-1.1.3-.6.7-1.3 1-1.9.2-.4.4-.8.6-1.1 0-.1.1-.2.1-.3.1-.1.2-.3.2-.4 9.7-17.6 20.6-32.4 24-54 .3-2.1.7-4.2 1-6.2.5-3.4 1-6.8 1.4-10.1.2-1.3.3-2.5.5-3.7 1.7-14.4 2.8-27.3 3.6-36.3 2.6-27.9-14.5-58.1-27.6-76.8-7-10-12.9-16.7-14-17.9l-.1-.1c-.2.1-.5.2-.7.3l-.9.3c-.5.2-1.1.4-1.6.6-1.1.4-2.2.9-3.4 1.3-.4.2-.8.3-1.2.5-12.7 5-42.7 13.8-46 16.3-1.9 1.4-3.1 12.6-8.1 28.7-10.3 33.1-16.5 83.1-16.8 95.6v.6c0 1.3 2.8 7.1 7.1 15.4zm50.8-6.2c0 6.2-2 13.4-5.1 21-.1.2-.2.4-.2.6-2.1-4.6-4.2-9-6-13-5-11.1-8.4-19.8-8.6-23.3-1.2-22.1 15-47.5 15-47.5v.1c0 .1 0 .2.1.2v.3c3.5 13.1 4.8 61.6 4.8 61.6zm248.9-46.2l-75.8 16.5-36.1-94.4c-.8-.6-11.2-6.2-18-9.5-7.1-3.4-16.2-7.6-24.2-11.3-3.8-1.8-7.4-3.4-10.5-4.8l-.3.2s4.5 14.9 10.3 52.1c.2 1.2.4 2.5.6 3.8 0 .1 0 .3.1.5.1.9.3 1.7.4 2.6v.3l.3 1.8c.2 1.5.4 3 .7 4.5 2.6 18.1 6.2 48.9 9.7 80 2.7 24.5 9 49.6 11 68.4.4 3.7 1.3 8.6 2.6 14.1.1.6.3 1.3.4 1.9 5.6 23.7 16.5 57.2 16.5 57.2l3.2-2.9 9.4-8.7c2.2-2 3-5 2.1-7.8-5.2-16.8-22.9-76.2-26.1-118-1-13.1 2.8-25.5 5-37.2 0 .1.1.2.1.3 1.9 5.2 3.9 10.8 6 16.3 5.6 14.7 11.3 28.4 13.7 29.2 5.3 1.9 105.1-25.3 105.7-29.2l-6.8-25.9z"/><path d="M929.1 798.4l15.5 8.7-6.6 6.7 17.6 95c3.6-22.3 5.2-43.4 6.4-56.4 4-43.1-39-91.8-41.7-94.8-2.1.8-4.3 1.7-6.6 2.6l15.4 38.2zm54.2-37.2s5.8 18.9 12.5 66c2.6 18.1 6.2 48.9 9.7 80l3.6-88.9-7.4-8 6.5-8.2-14-35.8c-3.8-1.8-7.4-3.4-10.5-4.8l-.4-.3z" fill="#4e70a6"/><path d="M919.5 757.9l12.8-7.8s.4 7 32.1 25.4l-9 25.4-35.9-43zm53.4-4.3s-.5 7.6-8.4 21.9l17.6 22.9 1.3-37.2-10.5-7.6z" fill="#f5e2d9"/><path class="st4" d="M964.4 775.5s-3.4 13.6-2.2 17.5c0 0 7.5 2.7 12.9-.7 0-.1-3.8-9.6-10.7-16.8z"/><path d="M982 972.2c1.9-9.6.1-38.5 0-39.7l-1.6.1c0 .3 1.9 29.8 0 39.3l1.6.3z" fill="#ad9f99"/><path d="M968.7 967.7s15.4 1.8 20.5 3.1l-.7 17.2-20.2-2.2.4-18.1z" fill="#69737a"/><path class="st4" d="M972 791s17.2 43.3 14.4 91.9c-2.9 50.3-7.7 68.5-7.7 68.5l-10.6 13.3-4.7-16.3s14.2-64.1 5-126.5c-1.7-11.3-4.1-32.7-4.1-32.7l7.7 1.8z"/><path class="st22" d="M920.5 995.7s3.7 7.4 7.4 8.6c3.7 1.2 9.1 7.2 9.1 7.2l-25.9 13.7s-6.9-13.5-7.2-22.1c-.5-8.6 16.6-7.4 16.6-7.4z"/><path class="st10" d="M922.9 996.4l1.7 3.5s-16.5 12-20.9 12.8l-1.5-4.6 20.7-11.7z"/><path class="st17" d="M924.6 996.6s-12.3 10.2-22.7 14.9l-35-62.9 18.1-35c0-.1 38.8 76.8 39.6 83z"/><path d="M1029.1 852.1c.6 11.6.5 22 .5 22v.9c0-.2 0-.4.1-.6 1.9 5.2 3.9 10.8 6 16.3.5-6.4.6-12.3.5-17.8-.8-32.6-11.1-49.8-11.1-49.8 2.4 5.7 3.5 17.9 4 29zM872.4 974.9l28 33.8-24-41.5c-1.4 2.7-2.7 5.2-4 7.7z" fill="#2f4363"/><path class="st4" d="M1075.8 932.5h64.7c4.4 0 8.3-3 9.3-7.3l28.1-116c1.5-6-3.1-11.9-9.3-11.9h-64.7c-4.4 0-8.3 3-9.3 7.3l-28.1 116c-1.5 6.1 3 11.9 9.3 11.9z"/><path class="st22" d="M1154.9 900.3c-3.2-2.9-9.3-4.6-14.5-8.1-5.2-3.5-.9-7.1-.9-7.1-5.4-1.8-4.8-4.3-4.1-6 .9-2.3 6.8-1.6 6.8-1.6s-5.3-1.2-7.4-2.1c-2.2-1-1.4-4.7 1.9-5.9 3.3-1.2 16.9 2.2 16.9 2.2s-2.2-1.1-8.9-4.4c-6.7-3.4-8.2-6.4-4.2-7.9 2.7-1 8.1 1.1 18.5 8.1 7.8 5.2 7.2 5.9 7.2 5.9s-7.6 30.4-11.3 26.9z"/><ellipse class="st1" cx="1274.9" cy="1394.8" rx="66.2" ry="10.4"/><path class="st2" d="M1273 1151h3.9v243.8h-3.9z"/><path class="st2" d="M1276.1 1158.2c5.6-2.3 24.4-13.2 1.4-47.8-1.2-1.9-4.5-1.9-5.7 0-6.7 10.7-21.6 38.8 1.5 47.9.8.3 1.9.3 2.8-.1zm.8 29.2c5.3 2.8 26.2 10.4 50.8-23.4 1.3-1.8-.3-4.1-2.9-4-14.6.7-51.6 4.6-49.3 25.4 0 .9.6 1.6 1.4 2z"/><path class="st2" d="M1273.4 1187.4c-5.3 2.8-26.2 10.4-50.8-23.4-1.3-1.8.3-4.1 2.9-4 14.6.7 51.6 4.6 49.3 25.4 0 .9-.6 1.6-1.4 2zm3.6 44.7c5.8 3.1 30.4 12.7 59.2-27.5 1.3-1.8-.4-4.1-2.9-4-16.2.7-60.6 4.9-57.7 29.5 0 .8.6 1.5 1.4 2z"/><path class="st2" d="M1273.3 1232.1c-5.8 3.1-30.4 12.7-59.2-27.5-1.3-1.8.4-4.1 2.9-4 16.2.7 60.6 4.9 57.7 29.5 0 .8-.6 1.5-1.4 2zm3.8 52.7c6.4 3.6 37.2 16.7 73.3-34.4 1.3-1.8-.3-4.1-2.9-4-18.6.7-75.9 5.4-71.9 36.4.2.9.7 1.6 1.5 2z"/><path class="st2" d="M1273.2 1284.8c-6.4 3.6-37.2 16.7-73.3-34.4-1.3-1.8.3-4.1 2.9-4 18.6.7 75.9 5.4 71.9 36.4-.2.9-.7 1.6-1.5 2zm4 60.6c7.2 4.1 46.3 22 92-43.5 1.2-1.8-.4-4-2.9-3.9-21.4.7-96.1 5.9-90.5 45.5.1.8.6 1.5 1.4 1.9z"/><path class="st2" d="M1273.1 1345.4c-7.2 4.1-46.3 22-92-43.5-1.2-1.8.4-4 2.9-3.9 21.4.7 96.1 5.9 90.5 45.5-.1.8-.6 1.5-1.4 1.9z"/><path class="st3" d="M1280.9 1385.5c.9-.2 1.5-.9 1.3-1.6-6.9-32.4-56.5-66.7-58.6-68.2-.7-.5-1.8-.4-2.4.2-.6.6-.5 1.5.2 2 .5.3 50.8 35.1 57.4 66.5.2.8 1.1 1.3 2.1 1.1z"/><path class="st3" d="M1250.6 1360.8c-2.5.9-4.8 2.1-7.4 2.7-2.6.5-5.8.2-7.4-1.6-2.2-2.4-.4-5.9 2.4-7.8 3.6-2.4 8.6-3 13.2-2.5s9 2 13.3 3.5c-2.4-4.8-2.3-10.4.2-15.2 1.6-3.1 5.4-6.2 9.3-5.1 2.7.8 4.2 3.4 3.9 5.7s-1.8 4.5-3.5 6.4c-1.7 1.9-3.6 3.7-4.7 5.9-1.3 2.6-1.2 5.6 0 8.2-6-2.3-13.2-2.4-19.3-.2z"/><path class="st3" d="M1259.7 1328.4c-3.5 5.3-4.6 11.7-2.9 17.6-7.2-.7-14.6-.1-21.6 1.7-2.1.5-4.2 1.2-6.4 1.2s-4.6-.7-5.6-2.3c-1.1-1.8-.1-4.1 1.8-5.4 1.8-1.3 4.3-1.8 6.7-2.2 6.3-.9 13-.8 18.9 1.4-1.7-3.9-2.4-8.1-1.9-12.2.4-2.9 1.5-6 4.4-7.7 2.9-1.7 7.9-1 8.8 1.8.7 2.1-.9 4.2-2.2 6.1z"/><path class="st3" d="M1240.8 1331.2c-1.1-3-.9-6.4.7-9.3 1-1.9 2.6-3.7 3.6-5.6 1.1-1.9 1.6-4.2.4-6.1-1-1.7-3.4-2.8-5.7-2.8-2.3 0-4.6 1-6 2.5-1.9 2.1-2.3 4.9-2 7.5.3 2.6 1.2 5.1 1.4 7.7-4.5-2.5-10.4-2.4-15.8-1.7-3.8.5-7.9 1.4-10.1 4-.6.7-.9 1.5-1 2.3-.1 2.6 3.6 4.4 6.7 4.2s6-1.6 9-2.5c6.1-2 12.8-2.1 18.8-.2z"/><path class="st3" d="M1208.6 1298c2.5-1 5.6.1 7.7 1.6 4.1 3 6 7.4 7.8 11.6 1.5 3.5 3 7 4.4 10.4-4.8-1.4-8.8-4.3-12.6-7.1-3.2-2.3-6.4-4.7-8.5-7.7-1-1.4-1.8-3.1-1.7-4.7s1.1-3.4 2.9-4.1z"/><path class="st24" d="M1128.8 740.9c2.9 2.9 7.7 2.9 10.7 0 3-2.9 3-7.6 0-10.5-2.9-2.9-7.7-2.9-10.7 0-2.9 2.9-2.9 7.6 0 10.5zm-22.9-30.6c-.9-1-.8-2.5.2-3.3 17.4-15.6 43.1-14.9 59.6 1.6.9.9.9 2.4 0 3.3-.9.9-2.5 1-3.4.1-14.8-14.4-37.4-15.1-53-1.4-1 .9-2.5.7-3.4-.3z"/><path class="st24" d="M1112.5 717.9c-.9-1-.8-2.5.2-3.4 13.5-11.6 33-11 45.8 1.2 1 .9 1 2.5.1 3.4-.9.9-2.4 1-3.4.1-11.1-10.4-27.7-10.8-39.3-1.1-1 .9-2.5.8-3.4-.2z"/><path class="st24" d="M1119 725.2c-.9-1-.8-2.6.3-3.4 9.7-7.8 23.2-7.4 32.5.9 1 .9 1 2.5.1 3.4-.9.9-2.4 1-3.3.1-7.5-6.5-18.3-6.8-26.1-.7-1.2.8-2.7.7-3.5-.3z"/><path class="st25" d="M2116.8 1010.8h384.8v384.8h-384.8z"/><path class="st6" d="M1495 1034.8h509V1405h-509z"/><ellipse class="st1" cx="2505.5" cy="1394.9" rx="183" ry="19.3"/><path class="st1" d="M2068.5 615.4h-69.4v780.2h117.7v-384.8l-48.3-197.7z"/><path class="st25" d="M2068.5 615.4h384.8v197.7h-384.8z"/><path fill="#dfdfe5" d="M2501.6 1010.8h-384.8l-48.3-197.7h384.8z"/><path d="M2123.2 852.4h-10.1l-3.8-14.4h10zm22.9 0H2136l-3.8-14.4h10zm22.8 0h-10L2155 838h10.1zm22.9 0h-10l-3.9-14.4h10.1zm22.9 0h-10l-3.9-14.4h10.1zm22.9 0h-10.1l-3.8-14.4h10.1zm-107.2 26.7h-10.1l-3.9-14.3h10.1zm22.8 0h-10l-3.9-14.3h10.1zm22.9 0h-10l-3.9-14.3h10.1zm22.9 0h-10l-3.9-14.3h10.1zm22.9 0h-10.1l-3.8-14.3h10.1zm22.9 0h-10.1l-3.8-14.3h10zm-107 27.7h-10.1l-3.8-14.3h10zm22.9 0h-10.1l-3.8-14.3h10zm22.9 0h-10.1l-3.8-14.3h10zm22.9 0h-10.1l-3.9-14.3h10.1zm22.8 0h-10l-3.9-14.3h10.1zm22.9 0h-10l-3.9-14.3h10.1zM2145 933.6h-10.1l-3.8-14.4h10zm22.9 0h-10.1l-3.8-14.4h10zm22.9 0h-10.1l-3.9-14.4h10.1zm22.8 0h-10l-3.9-14.4h10.1zm22.9 0h-10l-3.9-14.4h10.1zm22.9 0h-10l-3.9-14.4h10.1zm23.1-81.2h-10.1l-3.9-14.4h10.1zm22.8 0h-10l-3.9-14.4h10.1zm22.9 0h-10l-3.9-14.4h10.1zm22.9 0h-10l-3.9-14.4h10.1zm22.9 0h-10.1l-3.8-14.4h10.1zm22.9 0h-10.1L2383 838h10zm-107.3 26.7h-10l-3.9-14.3h10.1zm22.9 0h-10l-3.9-14.3h10.1zm22.9 0h-10.1l-3.8-14.3h10.1zm22.9 0h-10.1l-3.8-14.3h10zm22.9 0h-10.1l-3.8-14.3h10zm22.9 0H2394l-3.8-14.3h10zm-107 27.7H2287l-3.8-14.3h10zm22.9 0h-10.1l-3.8-14.3h10zm22.8 0h-10l-3.9-14.3h10.1zm22.9 0h-10l-3.9-14.3h10.1zm22.9 0h-10l-3.9-14.3h10.1zm22.9 0h-10.1l-3.8-14.3h10.1zm-107.2 26.8h-10.1l-3.9-14.4h10.1zm22.8 0h-10l-3.9-14.4h10.1zm22.9 0h-10l-3.9-14.4h10.1zm22.9 0h-10l-3.9-14.4h10.1zm22.9 0h-10.1l-3.8-14.4h10.1zm22.9 0h-10.1l-3.8-14.4h10z" fill="#525266"/><path class="st28" d="M2098.1 678.5H2241v115.1h-142.9z"/><path class="st3" d="M2230.9 678.5h10.2v115.1h-10.2z"/><path class="st29" d="M2328.7 648.4c0 4.3-2.4 7.8-5.5 7.8-3 0-5.5-3.5-5.5-7.8s2.4-7.8 5.5-7.8c3 .1 5.5 3.5 5.5 7.8z"/><path class="st3" d="M2354.2 648.4c0 4.3-2.4 7.8-5.5 7.8-3 0-5.5-3.5-5.5-7.8s2.4-7.8 5.5-7.8c3 .1 5.5 3.5 5.5 7.8z"/><path class="st2" d="M2379.7 648.4c0 4.3-2.4 7.8-5.5 7.8-3 0-5.5-3.5-5.5-7.8s2.4-7.8 5.5-7.8c3 .1 5.5 3.5 5.5 7.8z"/><path class="st29" d="M2405.2 648.4c0 4.3-2.4 7.8-5.5 7.8s-5.5-3.5-5.5-7.8 2.4-7.8 5.5-7.8 5.5 3.5 5.5 7.8z"/><path class="st3" d="M2430.7 648.4c0 4.3-2.4 7.8-5.5 7.8-3 0-5.5-3.5-5.5-7.8s2.4-7.8 5.5-7.8c3.1.1 5.5 3.5 5.5 7.8z"/><path d="M2431.8 772.5h-113v-95.1h113v95.1zm-110.7-2.2h108.5v-90.6h-108.5v90.6z" fill="#a9c2ff"/><path d="M2137.2 690.8h17.4v3.2h-17.4zm-33.8 0h27.5v3.2h-27.5zm0 8.6h41.6v3.2h-41.6zm47.2 0h27.6v3.2h-27.6zm7.8-8.6h30.1v3.2h-30.1zm-55 23.4h27.5v3.2h-27.5zm0 8.6h41.6v3.2h-41.6zm47.2 0h27.6v3.2h-27.6zm-13.4-8.6h17.4v3.2h-17.4zm21.2 0h30.1v3.2h-30.1zm-55 25.8h27.5v3.2h-27.5zm0 8.6h41.6v3.2h-41.6zm47.2 0h27.6v3.2h-27.6zm-13.4-8.6h17.4v3.2h-17.4zm21.2 0h30.1v3.2h-30.1zm-55 24.9h27.5v3.2h-27.5zm0 8.6h41.6v3.2h-41.6zm47.2 0h27.6v3.2h-27.6zm-13.4-8.6h17.4v3.2h-17.4zm21.2 0h30.1v3.2h-30.1z" fill="#e6f2ff"/><path class="st32" d="M1481.6 1034.8h635.3v22.6h-635.3z"/><path class="st33" d="M2252.2 714.7h6.9v6.9h-6.9zm18.1 0h6.9v6.9h-6.9zm18 0h6.9v6.9h-6.9zm-36.1 15.4h6.9v6.9h-6.9zm18.1 0h6.9v6.9h-6.9zm18 0h6.9v6.9h-6.9zm-36.1 17.1h6.9v6.9h-6.9zm18.1 0h6.9v6.9h-6.9zm18 0h6.9v6.9h-6.9z"/><path class="st34" d="M2324.5 904.8l11.2-1.7c1.2-.2 1.8-1.5 1.3-3l-10.9-33.3c-.7-2-2.7-3.6-4.3-3.4l-11.2 1.7c-1.2.2-1.8 1.5-1.3 3l10.9 33.3c.7 2 2.8 3.6 4.3 3.4z"/><path class="st35" d="M2328.5 904.2l11.2-1.7c1.2-.2 1.8-1.5 1.3-3l-10.9-33.3c-.7-2-2.7-3.6-4.3-3.4l-11.2 1.7c-1.2.2-1.8 1.5-1.3 3l10.9 33.3c.7 2 2.7 3.7 4.3 3.4z"/><path class="st35" d="M2317.7 870.6c.3 0 .5-.4.4-.9l-8.9-29.5c-.1-.4-.5-.7-.8-.7-.3 0-.5.4-.4.9l8.9 29.5c.1.4.4.7.8.7z"/><linearGradient id="SVGID_5_" gradientUnits="userSpaceOnUse" x1="2275.727" y1="751.646" x2="2314.701" y2="751.646"><stop offset="0" stop-color="#ffb9b8"/><stop offset="1" stop-color="#feb3b1"/></linearGradient><path d="M2314.7 758.8s-8.1-13.8-14.6-18.9c-6.4-5.1-23.5-6.5-24.1-5.2-2 4.1 6.7 9.9 8.6 13.6 1.8 3.7 1 9.1 9.7 13.5 8.9 4.5 14.1 7.5 14.1 7.5l6.3-10.5z" fill="url(#SVGID_5_)"/><path class="st34" d="M2307.8 756.9c4.2-6.5 5.4-6.8 5.4-6.8s69 27.5 75.6 29.8c6.6 2.3 105.1 8.1 105.1 8.1l29.7 65.3s-131.2-29.9-147.8-36.1c-27.4-10.2-71.3-50-71.3-50s.1-5.2 3.3-10.3z"/><path class="st37" d="M2479.3 1367.6s-1.5 24.2-6 29.9h-69.2c.4-2.4 2.4-8.4 11.1-9.9 10.9-1.9 29.2-9.6 35.9-24 6.9-15.2 28.2 4 28.2 4zm122.8-3.4s4.3 31.5-1.6 32c-.8.1-26.3.1-36.3 0-12.4-.1-32.3.1-32.3.1-2.6.1-4.3-2.7-2.9-4.9 1.4-2.4 4.2-5 9.4-6 10.9-2.1 29.1-10.1 35.4-24.7 6.7-15.3 28.3 3.5 28.3 3.5z"/><path d="M2446.7 1045.2s17.4 60.9 67.3 166.7c49.9 105.8 53.7 154 53.7 154l34.4-1.6s-3.2-125.9-26.8-179.3c-23.6-53.4-28.4-199.4-28.4-199.4l-100.2 59.6z" fill="#393c3d"/><linearGradient id="SVGID_6_" gradientUnits="userSpaceOnUse" x1="2450.845" y1="755.558" x2="2495.919" y2="755.558"><stop offset="0" stop-color="#ffb9b8"/><stop offset="1" stop-color="#feb3b1"/></linearGradient><path d="M2495.9 772l-18.4 13.7-26.6-5.6c.4-2.4 2.1-12.5 3.7-21.6.1-.5.2-1.1.3-1.6 1.4-7.8 2.6-14.4 2.6-14.4l24.9-12.4 9.3-4.6c0 .2-.7 8.6-.8 9.8-1.9 21.9 5 36.7 5 36.7z" fill="url(#SVGID_6_)"/><path class="st40" d="M2452.7 765.2c.6-.2 36.2-10.8 40.1-9.5 3.9 1.3 6.2 8.8 6.2 8.8l-55 15.7c-.1-.1 1.3-11.9 8.7-15z"/><path class="st24" d="M2548.7 1004.4c-6 27.6-132-58.9-130.4-75.8.2-1.8.4-3.7.6-5.6 2.3-23.4 4.6-46.3 4.7-61.3.1-13 1.9-26.2 4.3-38.3 2.2-11.1 4.9-21.2 7.2-29.1 1.6-5.5 4.7-10.4 8.8-14.3 2.9-2.7 6.3-4.9 10.1-6.4 1-.4 2.1-.8 3.1-1.1 15.2-4.4 36.2-9.9 41.9-8.2 15.4 4.5 26.9 31.7 35 66.3 15.2 64.9 18.7 155.8 14.7 173.8z"/><linearGradient id="SVGID_7_" gradientUnits="userSpaceOnUse" x1="2454.574" y1="744.254" x2="2489.602" y2="744.254"><stop offset="0" stop-color="#ffb9b8"/><stop offset="1" stop-color="#feb3b1"/></linearGradient><path d="M2488.9 735.6c-5.5 10.5-25.8 19.5-34.3 22.8.1-.5.2-1.1.3-1.6 1.4-7.8 2.6-14.4 2.6-14.4l24.9-12.4c5.4 0 8.7 1.3 6.5 5.6z" fill="url(#SVGID_7_)"/><linearGradient id="SVGID_8_" gradientUnits="userSpaceOnUse" x1="2439.711" y1="705.79" x2="2507.926" y2="705.79"><stop offset="0" stop-color="#ffb9b8"/><stop offset="1" stop-color="#feb3b1"/></linearGradient><path d="M2445.3 741s44.9 14 53.2-14.1c8.3-28.1 19.7-45.2-8.6-55.3s-37.1-1.1-42.1 7.6c-5.1 8.7-13.9 57.4-2.5 61.8z" fill="url(#SVGID_8_)"/><path class="st40" d="M2449.5 676.5s2.9 32.7 9.6 31.3c6.8-1.4 12.9-2.5 11.9 7.4s-10.4 21.2 10.5 23c20.8 1.7 50.8-52 45.1-62.2-16.6-29.4-101-35.3-77.1.5z"/><path class="st34" d="M2422.2 992.8c12.5 4.5-.2-12.4 0-15.9 1-15.5-5.1-35.1-3.2-53.8l76.2-45.6c-.1 0 18 114.5-73 115.3z"/><path class="st9" d="M2548.7 1004.4c-32.5 60.3-37.7 83.3-37.7 83.3-28.3-3.2-76.8-58.9-92.2-73.8 0 0-2.1-68.5-.4-85.3l23.5-.7s42.5 10.8 53.5-3.8c11-14.6 6.2-86.4 6.2-86.4l32.3-7c15.3 64.8 23.6 157.5 14.8 173.7z"/><linearGradient id="SVGID_9_" gradientUnits="userSpaceOnUse" x1="2311.465" y1="883.715" x2="2363.091" y2="883.715"><stop offset="0" stop-color="#ffb9b8"/><stop offset="1" stop-color="#feb3b1"/></linearGradient><path d="M2363.1 889s-9.3-1.8-11.7-3.8c-3.6-2.9-6.4-7.9-8.1-8.4-2.9-.9-10.2-10-10.8-10.6-.2-.2-2.2.7-1.7 2.2.5 1.5 1.6 4.7 1.9 5.9 1.7 5.2 1.6 6.7-4.5 4.7-.8-.3-15-4.8-16.5-1.5-1.5 3.2 4.4 18.8 11.9 22.1 7.4 3.4 25.8.3 27.1.7 11.2 3.3 12.4-11.3 12.4-11.3z" fill="url(#SVGID_9_)"/><path class="st24" d="M2355.5 886s75.6 12.9 82.3 9.6c10.7-5.2-4.1-81.9-4.1-81.9s-.6-17.4 19.7-21.5c17.6-3.6 34.7 9.7 34.7 9.7s15.5 13.9 13.5 29.2c-4.4 34.1-11.2 103.3-34 113.9-29.4 13.7-114.4-38-114.4-38s-2.8-3.5-2.4-9.9c.2-5.6 4.7-11.1 4.7-11.1z"/><path class="st9" d="M2507.9 836.4l-6.3 1.4s-13.2-57.3-57.7-57.6c2.9-2.7 6.3-4.9 10.1-6.4 16.3 4.3 44.6 18.2 53.9 62.6z"/><linearGradient id="SVGID_10_" gradientUnits="userSpaceOnUse" x1="2277.03" y1="753.326" x2="2292.172" y2="753.326"><stop offset="0" stop-color="#ffb9b8"/><stop offset="1" stop-color="#feb3b1"/></linearGradient><path d="M2289.9 751.3s-12.3-7.5-12.8-4.3c-.3 1.6 5.2 6 7.4 7.9 2.2 1.9 7.8 5.6 7.8 5.6l-2.4-9.2z" fill="url(#SVGID_10_)"/><path class="st45" d="M1627.5 879.5l-12.2 145s-1.3 8.8 5.3 8.8h53.5s-8.1-1.8-8-5.9c.1-4.9 14.3-149.2 14.3-149.2l-52.9 1.3z"/><path class="st45" d="M1677.5 1030.7c-2.1 0-43 .1-53.4 0-4.6-.1-5.4-4.1-5.4-6.6 0-1.2.1-2.2.1-2.2l.3-3.8.8-9.6.7-8.5.9-10.9.8-9.2 8.7-103 52.8-1.4s-6 60.4-10.2 104.4c-.5 4.9-.9 9.6-1.3 14-.1 1.4-.3 2.8-.4 4.1-.4 4.2-.7 8-1.1 11.4-.2 1.8-.3 3.4-.5 4.9-.5 5.9-.9 9.7-.9 10.4 0 .4 0 .8.1 1.2 1.1 4.6 7.2 4.8 8 4.8z"/><path fill="#9b9795" d="M1499.1 800.6l29.8 119.3 4 16.4 13.9 55.5h257l-51-191.2z"/><path class="st47" d="M1541.3 996h255.5l7-4.2h-257z"/><path transform="rotate(-180 1658.659 1032.066)" fill="#fc9f38" d="M1631 1030.8h55.3v2.6H1631z"/><path class="st47" d="M1791.4 956.6l-41.7-153.5h-251v-2.5h254.1l41.6 155.7zM1672.3 996l-.3 2-52.1 10.5.8-8.5.3-4z"/><path d="M1677.5 1030.7c-2.1 0-43 .1-53.4 0-4.6-.1-5.4-4.1-5.4-6.6l51.8-9.7c-.5 5.9-.9 9.7-.9 10.4 0 .4 0 .8.1 1.2.9 4.5 7 4.7 7.8 4.7z" opacity=".4" fill="#e65f00"/><path class="st32" d="M1659.7 953.1l-112.9 38.7-13.9-55.5z"/><path class="st0" d="M1499.1 800.6h253.7l41.2 153.7h-257.9z"/><path class="st28" d="M1782 947.6h-237.5l-26.9-107.1-2.1-8.2-1.7-7-4.1-16.5h234l4.6 16.5 1.9 7 2.3 8.2z"/><path class="st34" d="M1922.7 1067.9c1.7 1.4 46 49.4 42.4 86.3-1.1 10.8-10.4 19-21.3 19h-54s-55.1 9.8-56.4 21.7c-1.3 11.9-12.6 76.1-34.9 167.3 0 0-16.5 5.7-26.4 1.6-13.2-5.4-15.1-11-15.1-11s13.3-204.2 23.8-218.5c10.5-14.4 118.8-57.1 153.9-61.3 35-4.4-12-5.1-12-5.1z"/><linearGradient id="SVGID_11_" gradientUnits="userSpaceOnUse" x1="1559.753" y1="1024.281" x2="1609.648" y2="1024.281"><stop offset="0" stop-color="#ffb9b8"/><stop offset="1" stop-color="#feb3b1"/></linearGradient><path d="M1609.6 1017s-31.3-7.3-39.3 0c-8 7.3-10.6 17.8-10.6 17.8h49.9V1017z" fill="url(#SVGID_11_)"/><path class="st24" d="M1963.7 1067.9c1.3 1.1 10.8 26.9 17.3 56.2 5.5 25.2-13.7 49.1-39.5 49.1h-125.6s-55.1 9.8-56.4 21.7c-1.3 11.9-12.6 76.1-34.9 167.3 0 0-16.5 4.3-29.4-1.2-6.9-2.9-12.3-10-12.3-10s13.4-202.5 23.9-216.8c10.5-14.4 118.8-57.1 153.9-61.3 35-4.3 103-5 103-5z"/><linearGradient id="SVGID_12_" gradientUnits="userSpaceOnUse" x1="1841.531" y1="870.411" x2="1894.049" y2="870.411"><stop offset="0" stop-color="#ffb9b8"/><stop offset="1" stop-color="#feb3b1"/></linearGradient><path d="M1894 885.4l-19.4 18.6h-33.1c0-2.7.1-13.8.2-23.8v-1.8c0-2.2.1-4.4.1-6.3.1-5.5.1-9.6.1-9.6l8.5-5.8 18.9-12.9 10.2-7c0 .2.8 9.3 1 10.6 2.3 23.7 13.5 38 13.5 38z" fill="url(#SVGID_12_)"/><path class="st40" d="M1845.9 882c.6-.3 36.4-16.3 40.6-14.9s9.4 14.2 9.4 14.2l-63 14.3c0-.1 5-10.2 13-13.6z"/><path class="st24" d="M2000.8 989.3c-6.8-42.1-35.6-73.5-47.9-85.3-8.3-12.4-56.9-22.7-56.9-22.7s-40.3 9.1-63 14.3c0 0-35.5 3.9-55.6 37-12.4 20.5-47.9 67.4-71.2 68.8-23.3 1.5-96.5 15.7-96.5 15.7v18l111.6 3.1c1.4 0 2.7-.1 4.1-.3 9.6-1.8 50.8-10 71.2-20.6 3.3 52.7 7.1 133.2 25.5 146 19.5 13.5 156.4 15.3 170.9-5.3 7.4-10.5-1.7-73-13-133.2 14.1-6.9 23.7-17.9 20.8-35.5z"/><linearGradient id="SVGID_13_" gradientUnits="userSpaceOnUse" x1="1841.833" y1="863.452" x2="1874.286" y2="863.452"><stop offset="0" stop-color="#ffb9b8"/><stop offset="1" stop-color="#feb3b1"/></linearGradient><path d="M1874.3 854.8l-1.7 1S1857 867 1841.8 872c.1-5.5.1-9.6.1-9.6l8.5-5.8 23.9-1.8z" fill="url(#SVGID_13_)"/><linearGradient id="SVGID_14_" gradientUnits="userSpaceOnUse" x1="1818.568" y1="820.76" x2="1888.111" y2="820.76"><stop offset="0" stop-color="#ffb9b8"/><stop offset="1" stop-color="#feb3b1"/></linearGradient><path d="M1830.4 862.8s50.9 6 54.2-25.7c3.3-31.8 12-52.4-20.3-57.6-32.4-5.2-39.9 6.3-43.6 16.6-3.8 10.4-3.5 64.3 9.7 66.7z" fill="url(#SVGID_14_)"/><path class="st40" d="M1821.9 792.9s9.6 34.5 16.6 31.6c7-2.9 13.3-5.2 14.2 5.5.9 10.8-6.9 24.8 15.8 22.5 22.7-2.3 44-65.9 35.9-75.6-23.6-28.2-115.2-17.6-82.5 16z"/><path d="M1785.9 1180h254c8.4 0 15.2-6.8 15.2-15.2v-13.4h-269.2v28.6z" fill="#6ca3ea"/><path class="st28" d="M1753.1 1180h195.8c5.6 0 10.2-4.6 10.2-10.2v-8.2c0-5.6-4.6-10.2-10.2-10.2h-195.8c-5.6 0-10.2 4.6-10.2 10.2v8.2c0 5.7 4.5 10.2 10.2 10.2z"/><path class="st28" d="M2030.2 1180c6.8 0 12.4-5.5 12.4-12.4V977.3c0-35.7-23.3-64.6-52.1-64.6h-117.8c-28.8 0-52.1 28.9-52.1 64.6V1180h209.6z"/><path class="st33" d="M2032.5 1180c12.5 0 22.6-10.1 22.6-22.6V977.3c0-35.7-23.3-64.6-52.1-64.6h-117.8c-28.8 0-52.1 28.9-52.1 64.6V1180h199.4z"/><path class="st3" d="M1586.6 823.1h-6.2l8.3 33.2h6.2zm-10 6.4h-6.2l6.7 26.8h6.2zm-10.1 6.7h-6.1l5 20.1h6.1zm-8.7 6.1h-6.2l3.5 14h6.2z"/><path class="st29" d="M1595.9 868h-36.4c-1 0-2-.8-2.2-1.8-.2-1 .4-1.8 1.3-1.8h36.4c1 0 2 .8 2.2 1.8.3 1-.3 1.8-1.3 1.8zm52.5-44.8H1612c-1 0-2-.8-2.2-1.8-.2-1 .4-1.8 1.3-1.8h36.4c1 0 2 .8 2.2 1.8.3 1-.3 1.8-1.3 1.8zm7.8 15.3h-48.6c-1 0-2-.8-2.2-1.8-.2-1 .4-1.8 1.3-1.8h48.6c1 0 2 .8 2.2 1.8.3 1-.4 1.8-1.3 1.8zm3.5 14.2h-48.6c-1 0-2-.8-2.2-1.8-.2-1 .4-1.8 1.3-1.8h48.6c1 0 2 .8 2.2 1.8.3 1-.3 1.8-1.3 1.8zm2.1 8.5h-48.6c-1 0-2-.8-2.2-1.8-.2-1 .4-1.8 1.3-1.8h48.6c1 0 2 .8 2.2 1.8.3 1-.3 1.8-1.3 1.8zm-23.7-15.9h-28.9c-1 0-2-.8-2.2-1.8-.2-1 .4-1.8 1.3-1.8h28.9c1 0 2 .8 2.2 1.8.3 1-.3 1.8-1.3 1.8zm-37.6 41.2h-36.4c-1 0-2-.8-2.2-1.8-.2-1 .4-1.8 1.3-1.8h36.4c1 0 2 .8 2.2 1.8.3.9-.3 1.8-1.3 1.8zm2.1 8.3h-36.4c-1 0-2-.8-2.2-1.8-.2-1 .4-1.8 1.3-1.8h36.4c1 0 2 .8 2.2 1.8.3 1-.3 1.8-1.3 1.8zm-22.4-19.9h-19c-1 0-2-.8-2.2-1.8-.2-1 .4-1.8 1.3-1.8h19c1 0 2 .8 2.2 1.8.3 1-.3 1.8-1.3 1.8zm141.9-6.9h-36.4c-1 0-2-.8-2.2-1.8-.2-1 .4-1.8 1.3-1.8h36.4c1 0 2 .8 2.2 1.8.3 1-.3 1.8-1.3 1.8zm-15.7 6.9h-19c-1 0-2-.8-2.2-1.8-.2-1 .4-1.8 1.3-1.8h19c1 0 2 .8 2.2 1.8.3 1-.3 1.8-1.3 1.8z"/><path class="st55" d="M1593.8 932.1c-9.1 0-18.3-7.4-20.6-16.5-2.3-9.1 3.3-16.5 12.4-16.5 9.1 0 18.3 7.4 20.6 16.5 2.2 9.1-3.4 16.5-12.4 16.5zm-6.4-25.3c-4.9 0-7.9 4-6.7 8.9 1.2 4.9 6.2 8.9 11.1 8.9 4.9 0 7.9-4 6.7-8.9-1.2-5-6.2-8.9-11.1-8.9z"/><path class="st56" d="M1593.8 932.1c9.1 0 14.6-7.4 12.4-16.5-2.2-8.8-11-16.1-19.9-16.4l1.9 7.6c4.7.4 9.2 4.1 10.4 8.8 1.2 4.9-1.8 8.9-6.7 8.9-1.9 0-3.8-.6-5.5-1.6l-3.9 5.6c3.4 2.2 7.3 3.6 11.3 3.6z"/><path class="st3" d="M1586.2 899.2l1.9 7.6c4.4.3 8.6 3.7 10.1 7.9l5.5-4.8c-3.8-6-10.6-10.4-17.5-10.7z"/><path class="st55" d="M1719.3 854.4c-8.4 0-17-6.8-19.1-15.3-2.1-8.4 3-15.3 11.5-15.3 8.4 0 17 6.8 19.1 15.3 2.1 8.5-3.1 15.3-11.5 15.3zm-5.8-23.5c-4.5 0-7.3 3.7-6.2 8.2 1.1 4.5 5.7 8.2 10.3 8.2 4.5 0 7.3-3.7 6.2-8.2-1.2-4.5-5.8-8.2-10.3-8.2z"/><path class="st2" d="M1719.3 854.4c8.4 0 13.6-6.8 11.5-15.3-2-8.2-10.2-14.9-18.4-15.2l1.8 7.1c4.3.3 8.5 3.8 9.6 8.2 1.1 4.5-1.6 8.2-6.2 8.2-1.8 0-3.5-.6-5.1-1.5l-3.6 5.2c3.1 2 6.8 3.3 10.4 3.3z"/><path class="st3" d="M1713.4 823.8l1.7 6.8c3.9.3 7.7 3.3 9 7.1l4.9-4.3c-3.5-5.5-9.5-9.4-15.6-9.6z"/><path class="st55" d="M1687.7 853c-8.1 0-16.3-6.6-18.3-14.7s2.9-14.7 11-14.7 16.3 6.6 18.3 14.7c2 8.2-2.9 14.7-11 14.7zm-5.6-22.5c-4.4 0-7 3.5-5.9 7.9 1.1 4.4 5.5 7.9 9.9 7.9s7-3.5 5.9-7.9c-1.1-4.4-5.6-7.9-9.9-7.9z"/><path class="st2" d="M1687.7 853c8.1 0 13-6.6 11-14.7-2-7.9-9.8-14.3-17.7-14.6l1.7 6.8c4.1.3 8.2 3.7 9.2 7.8 1.1 4.4-1.6 7.9-5.9 7.9-1.7 0-3.4-.5-4.9-1.5l-3.4 4.9c3 2.2 6.5 3.4 10 3.4z"/><path class="st29" d="M1669 869.9h-57.5c-2.3 0-4.6-1.9-5.2-4.2l-8.6-34.4c-.6-2.3.8-4.2 3.1-4.2h57.5c2.3 0 4.6 1.9 5.2 4.2l8.6 34.4c.6 2.4-.8 4.2-3.1 4.2zm-67.7-40.7c-1.2 0-1.9 1-1.6 2.1l8.6 34.4c.3 1.2 1.5 2.1 2.7 2.1h57.5c1.2 0 1.9-1 1.6-2.1l-8.6-34.4c-.3-1.2-1.5-2.1-2.7-2.1h-57.5z"/><path class="st56" d="M1676.2 877.1h-64.3l13 52.4h64.3z"/><path class="st3" d="M1689.2 929.5l-8.1-32.5-14.1-12.1-7.8 9.9-9-3.1-7 4.8h-4.3l-4.9-3.3-5.5-2.1-5.3-2.9-8.7-.5 10.4 41.7c0 .1 63.8.1 64.3.1z"/><path class="st2" d="M1682.3 902.6l-10.5-7.2-4.3 3.4-2.6 4.1-10.6 6.6-10.7-4.6-7.9 4.1-6.9-4.8-10.1.5 6.2 25.1h64.7z"/><path class="st57" d="M1689.6 929.8l-3.5-14.1-12.1 4.9-9.6.8-10.1 2.8-17.8-3.3-12.7 5.6.8 3.3c.1 0 38.3.1 65 0z"/><ellipse transform="rotate(-48.555 1715.582 903.236)" class="st55" cx="1715.7" cy="903.3" rx="18.9" ry="24.3"/><path class="st57" d="M1737.1 903.3c-3-11.8-14.9-21.4-26.8-21.4h-.2l5.3 21.3-12 14.5c5 4.3 11.3 7 17.6 7 11.9 0 19.1-9.6 16.1-21.4z"/><path class="st3" d="M1709.2 884.4h-.2l5.3 21.1.3 1.1 19.9-6.3c-5-9.2-15.2-15.9-25.3-15.9z"/><path class="st24" d="M1630.8 745.4c-3.3 3.2-8.6 3.1-11.9-.2s-3.2-8.5.2-11.7c3.3-3.2 8.6-3.1 11.9.2 3.2 3.2 3.1 8.5-.2 11.7zm26.1-33.6c1-1.1.9-2.7-.1-3.7-19.1-17.7-47.6-17.4-66.4.6-1 1-1.1 2.7-.1 3.7 1 1.1 2.7 1.1 3.8.1 16.7-15.8 41.9-16 58.9-.5 1.2 1 2.9.9 3.9-.2z"/><path class="st24" d="M1649.3 720.1c1-1.1.9-2.8-.2-3.8-14.8-13.1-36.4-13-51 .4-1.1 1-1.2 2.7-.1 3.8 1 1.1 2.7 1.1 3.8.2 12.6-11.3 31-11.5 43.8-.4 1.1.9 2.8.8 3.7-.2z"/><path class="st24" d="M1642 728c1-1.1.9-2.9-.2-3.8-10.6-8.9-25.7-8.7-36.1.3-1.1 1-1.2 2.7-.2 3.8 1 1 2.6 1.1 3.7.2 8.5-7.1 20.5-7.2 29.1-.2 1.1.9 2.8.8 3.7-.3zm610-176.5c-3.3 3.2-8.6 3.1-11.9-.2s-3.2-8.5.2-11.7c3.3-3.2 8.6-3.1 11.9.2 3.2 3.3 3.1 8.5-.2 11.7zm26.1-33.5c1-1.1.9-2.7-.1-3.7-19.1-17.7-47.6-17.4-66.4.6-1 1-1.1 2.7-.1 3.7 1 1.1 2.7 1.1 3.8.1 16.7-15.8 41.9-16 58.9-.5 1.2 1 2.9.9 3.9-.2z"/><path class="st24" d="M2270.5 526.2c1-1.1.9-2.8-.2-3.8-14.8-13.1-36.4-13-51 .4-1.1 1-1.2 2.7-.1 3.8 1 1.1 2.7 1.1 3.8.2 12.6-11.3 31-11.5 43.8-.4 1.1 1 2.8.9 3.7-.2z"/><path class="st24" d="M2263.2 534.2c1-1.1.9-2.9-.2-3.8-10.6-8.9-25.7-8.7-36.1.3-1.1 1-1.2 2.7-.2 3.8 1 1 2.6 1.1 3.7.2 8.5-7.1 20.5-7.2 29.1-.2 1.1.9 2.8.8 3.7-.3z"/><ellipse class="st1" cx="1815.7" cy="1394.8" rx="252.8" ry="19.4"/><path class="st28" d="M1914.3 1386.7h16.3l4.5-206.7h-24.8z"/><path class="st28" d="M1843.7 1386.7h158v-14.2l-80.5-7.3-77.5 7.3z"/><circle transform="rotate(-40.677 2003.97 1384.436)" class="st28" cx="2004.1" cy="1384.5" r="13"/><path class="st28" d="M1859.1 1384.5c0-7.2-5.8-13-13-13s-13 5.8-13 13 5.8 13 13 13 13-5.8 13-13zm-9.7-190.9H1996c7.5 0 13.6-6.1 13.6-13.6h-173.8c0 7.5 6.1 13.6 13.6 13.6z"/><path class="st37" d="M1798.2 1361.3s-2.3 35.7-9.2 36.2c-.9.1-35 0-35 0l-43.5-.3s.3-10.5 13-12.7c12.7-2.2 34-11.1 41.8-27.9 8.1-17.7 32.9 4.7 32.9 4.7z"/><path class="st37" d="M1721.9 1361.3s-2.3 35.7-9.2 36.2c-.9.1-35 0-35 0l-43.5-.3s.3-10.5 13-12.7c12.7-2.2 34-11.1 41.8-27.9 8.1-17.7 32.9 4.7 32.9 4.7z"/><path class="st4" d="M536.7 589.7l5.4 13.7c1.2-.5 2.4-1 3.6-1.6 12.1-5.7 21.3-15 27-25.9l-13.1-6.9c-4.3 8.2-11.2 15.2-20.2 19.4-.9.5-1.8.9-2.7 1.3zm-11.5 17.7c5.7-.5 11.3-1.7 16.8-3.9l-5.4-13.7c-4.1 1.6-8.4 2.6-12.6 2.9l1.2 14.7z"/><path class="st1" d="M1286.1 668.9h-19.2c-.8 0-1.4.6-1.4 1.4 0 .8.6 1.4 1.4 1.4h19.2c.8 0 1.4-.6 1.4-1.4 0-.8-.6-1.4-1.4-1.4zm0 4.3h-19.2c-.8 0-1.4.6-1.4 1.4 0 .8.6 1.4 1.4 1.4h19.2c.8 0 1.4-.6 1.4-1.4 0-.8-.6-1.4-1.4-1.4zm-11.2 4.4h-7.9c-.8 0-1.4.6-1.4 1.4 0 .8.6 1.4 1.4 1.4h7.9c.8 0 1.4-.6 1.4-1.4-.1-.8-.7-1.4-1.4-1.4z"/><path class="st9" d="M2418.8 992.8s-1.4 94.3 14.9 210.1 10.8 165 10.8 165l39.1 1.3s23.4-115.8 16.7-173.8c-6.7-58 32-198.9 32-198.9l-113.5-3.7z"/></svg>